<svg id="Слой_1" data-name="Слой 1" xmlns="http://www.w3.org/2000/svg" viewBox="0 0 430.7 430.7"><defs><style>.cls-1{fill:#fff;}.cls-2{fill:#fbba06;}.cls-3{fill:#191919;}</style></defs><rect class="cls-1" x="8.8" y="8.8" width="413.2" height="413.2"/><polygon class="cls-2" points="362.9 67.8 421.9 67.8 421.9 8.8 362.9 8.8 303.9 8.8 244.9 8.8 185.9 8.8 126.8 8.8 67.8 8.8 8.8 8.8 8.8 67.8 8.8 126.8 8.8 185.9 8.8 244.9 67.8 244.9 67.8 303.9 126.8 303.9 126.8 244.9 126.8 185.9 185.9 185.9 185.9 126.8 126.8 126.8 126.8 67.8 185.9 67.8 244.9 67.8 303.9 67.8 303.9 126.8 244.9 126.8 244.9 185.9 303.9 185.9 303.9 244.9 303.9 303.9 362.9 303.9 362.9 362.9 303.9 362.9 244.9 362.9 185.9 362.9 126.8 362.9 67.8 362.9 8.8 362.9 8.8 421.9 67.8 421.9 126.8 421.9 185.9 421.9 244.9 421.9 303.9 421.9 362.9 421.9 421.9 421.9 421.9 362.9 421.9 303.9 421.9 244.9 421.9 185.9 362.9 185.9 362.9 126.8 362.9 67.8"/><rect class="cls-2" x="185.9" y="185.9" width="59" height="59"/><path class="cls-3" d="M253.7,253.7H177.1V177.1h76.6v76.6Zm-59.1-17.6H236V194.7H194.6Z" transform="translate(0 0)"/><path class="cls-3" d="M312.7,312.7H118V118H312.6V312.7ZM135.6,295.1H295.1V135.6H135.6Z" transform="translate(0 0)"/><path class="cls-3" d="M372.8,371.7H59V57.9H372.8ZM76.6,354.1H355.2V75.5H76.6Z" transform="translate(0 0)"/><path class="cls-3" d="M430.7,430.7H0V0H430.7ZM17.6,413.1H413.2V17.6H17.6Z" transform="translate(0 0)"/></svg>