<?xml version="1.0" encoding="utf-8"?>
<!-- Generator: Adobe Illustrator 24.3.0, SVG Export Plug-In . SVG Version: 6.00 Build 0)  -->
<svg version="1.1" id="Слой_1" xmlns:xodm="http://www.corel.com/coreldraw/odm/2003"
	 xmlns="http://www.w3.org/2000/svg" xmlns:xlink="http://www.w3.org/1999/xlink" x="0px" y="0px" viewBox="0 0 157.8 157.8"
	 style="enable-background:new 0 0 157.8 157.8;" xml:space="preserve">
<style type="text/css">
	.st0{fill:#FBBB22;}
</style>
<g id="Слой_x0020_1">
	<g id="_1494509770560">
		<path class="st0" d="M13.6,114c-5.3,0-9.5,4.3-9.5,9.5v20.7c0,5.3,4.3,9.5,9.5,9.5h20.7c5.3,0,9.5-4.3,9.5-9.5v-20.7
			c0-5.3-4.3-9.5-9.5-9.5C34.3,114,13.6,114,13.6,114z M34.3,157.8H13.6c-7.5,0-13.6-6.1-13.6-13.6v-20.7c0-7.5,6.1-13.6,13.6-13.6
			h20.7c7.5,0,13.6,6.1,13.6,13.6v20.7C48,151.7,41.8,157.8,34.3,157.8L34.3,157.8z"/>
		<path class="st0" d="M24,125.7c-4.5,0-8.2,3.7-8.2,8.2s3.7,8.2,8.2,8.2c4.5,0,8.2-3.7,8.2-8.2C32.1,129.4,28.5,125.7,24,125.7z
			 M24,146.1c-6.8,0-12.3-5.5-12.3-12.3s5.5-12.3,12.3-12.3s12.3,5.5,12.3,12.3C36.3,140.6,30.7,146.1,24,146.1z"/>
		<path class="st0" d="M39.7,120.9c0,1.6-1.3,3-3,3s-3-1.3-3-3c0-1.6,1.3-3,3-3S39.7,119.3,39.7,120.9z"/>
	</g>
</g>
</svg>
