<?xml version="1.0" encoding="utf-8"?>
<!-- Generator: Adobe Illustrator 19.2.1, SVG Export Plug-In . SVG Version: 6.00 Build 0)  -->
<svg version="1.1" id="Слой_1" xmlns="http://www.w3.org/2000/svg" xmlns:xlink="http://www.w3.org/1999/xlink" x="0px" y="0px"
	 viewBox="0 0 960 560" style="enable-background:new 0 0 960 560;" xml:space="preserve">
<style type="text/css">
	.st0{fill:#FFFFFF;}
	.st1{fill:#FBBA06;}
	.st2{fill:#191919;}
</style>
<g>
	<rect x="8.8" y="73.1" class="st0" width="413.2" height="413.2"/>
	<polygon class="st1" points="362.9,132.1 421.9,132.1 421.9,73.1 362.9,73.1 303.9,73.1 244.9,73.1 185.9,73.1 126.8,73.1 
		67.8,73.1 8.8,73.1 8.8,132.1 8.8,191.1 8.8,250.2 8.8,309.2 67.8,309.2 67.8,368.2 126.8,368.2 126.8,309.2 126.8,250.2 
		185.9,250.2 185.9,191.1 126.8,191.1 126.8,132.1 185.9,132.1 244.9,132.1 303.9,132.1 303.9,191.1 244.9,191.1 244.9,250.2 
		303.9,250.2 303.9,309.2 303.9,368.2 362.9,368.2 362.9,427.2 303.9,427.2 244.9,427.2 185.9,427.2 126.8,427.2 67.8,427.2 
		8.8,427.2 8.8,486.2 67.8,486.2 126.8,486.2 185.9,486.2 244.9,486.2 303.9,486.2 362.9,486.2 421.9,486.2 421.9,427.2 
		421.9,368.2 421.9,309.2 421.9,250.2 362.9,250.2 362.9,191.1 	"/>
	<rect x="185.9" y="250.2" class="st1" width="59" height="59"/>
</g>
<g>
	<path class="st2" d="M253.7,318h-76.6v-76.6h76.6V318z M194.6,300.4h41.4v-41.4h-41.4V300.4z"/>
</g>
<g>
	<path class="st2" d="M312.7,377H118V182.3h194.6V377z M135.6,359.4h159.5V199.9H135.6V359.4z"/>
</g>
<g>
	<path class="st2" d="M372.8,436H59V122.2h313.8V436z M76.6,418.4h278.6V139.8H76.6V418.4z"/>
</g>
<g>
	<path class="st2" d="M430.7,495H0V64.3h430.7V495z M17.6,477.4h395.6V81.9H17.6V477.4z"/>
</g>
<g>
	<g>
		<g>
			<path class="st2" d="M506.4,186.8c2.6,0,4.8-0.2,6.5-0.7c1.7-0.4,3.1-1,4.1-1.8c1-0.8,1.7-1.6,2.1-2.7c0.4-1,0.6-2.2,0.6-3.5
				c0-2.7-1.3-4.9-3.8-6.7c-2.5-1.8-6.9-3.7-13.1-5.8c-2.7-1-5.4-2-8.1-3.3c-2.7-1.2-5.1-2.8-7.3-4.6c-2.1-1.9-3.9-4.1-5.2-6.8
				c-1.4-2.7-2-5.9-2-9.7c0-3.8,0.7-7.2,2.1-10.3c1.4-3.1,3.5-5.7,6.1-7.8c2.6-2.1,5.8-3.8,9.5-4.9c3.7-1.2,7.9-1.7,12.6-1.7
				c5.6,0,10.4,0.6,14.4,1.8s7.4,2.5,10,3.9l-5.4,14.7c-2.3-1.2-4.9-2.2-7.7-3.2c-2.8-0.9-6.2-1.4-10.2-1.4c-4.4,0-7.6,0.6-9.6,1.8
				c-1.9,1.2-2.9,3.1-2.9,5.7c0,1.5,0.4,2.8,1.1,3.8c0.7,1,1.7,2,3,2.8c1.3,0.8,2.8,1.6,4.5,2.3c1.7,0.7,3.6,1.4,5.7,2.1
				c4.3,1.6,8,3.2,11.2,4.7c3.2,1.5,5.8,3.4,7.9,5.4c2.1,2.1,3.7,4.5,4.7,7.3c1,2.8,1.5,6.2,1.5,10.1c0,7.7-2.7,13.7-8.1,17.9
				c-5.4,4.2-13.5,6.4-24.4,6.4c-3.7,0-6.9-0.2-9.9-0.7c-2.9-0.4-5.5-1-7.8-1.6c-2.3-0.6-4.2-1.3-5.8-2c-1.6-0.7-3-1.4-4.1-2
				l5.2-14.8c2.5,1.4,5.5,2.6,9.1,3.6C496.7,186.3,501.2,186.8,506.4,186.8z"/>
		</g>
		<g>
			<path class="st2" d="M612.1,118.5v15.8h-24.9V201h-18.6v-66.7h-24.9v-15.8H612.1z"/>
		</g>
		<g>
			<path class="st2" d="M624,118.5h18.6V201H624V118.5z"/>
		</g>
		<g>
			<path class="st2" d="M699.3,202.7c-13.4,0-23.6-3.7-30.7-11.2c-7-7.5-10.5-18.1-10.5-31.8c0-6.8,1.1-12.9,3.2-18.3
				c2.1-5.4,5.1-9.9,8.8-13.6c3.7-3.7,8.2-6.5,13.3-8.4c5.2-1.9,10.8-2.9,16.8-2.9c3.5,0,6.7,0.3,9.5,0.8c2.9,0.5,5.4,1.1,7.5,1.8
				c2.1,0.7,3.9,1.4,5.4,2.1c1.4,0.7,2.5,1.3,3.1,1.7l-5.4,15c-2.5-1.3-5.5-2.5-8.9-3.5c-3.4-1-7.2-1.4-11.5-1.4
				c-2.9,0-5.7,0.5-8.4,1.4c-2.7,1-5.2,2.5-7.3,4.6c-2.1,2.1-3.8,4.8-5.1,8.2c-1.3,3.3-1.9,7.4-1.9,12.1c0,3.8,0.4,7.4,1.3,10.7
				c0.8,3.3,2.2,6.1,4.1,8.5c1.9,2.4,4.3,4.3,7.3,5.7c3,1.4,6.7,2.1,11,2.1c2.7,0,5.1-0.2,7.3-0.5c2.1-0.3,4-0.7,5.7-1.1
				c1.7-0.4,3.1-0.9,4.4-1.5c1.3-0.6,2.4-1.1,3.5-1.5l5.1,14.9c-2.6,1.6-6.3,3-11.1,4.3C711,202.1,705.5,202.7,699.3,202.7z"/>
		</g>
		<g>
			<path class="st2" d="M787.5,201c-1.7-2.7-3.6-5.6-5.9-8.7c-2.3-3.1-4.7-6.3-7.3-9.4c-2.6-3.2-5.4-6.2-8.2-9.1
				c-2.9-2.9-5.7-5.5-8.6-7.7v35h-18.6v-82.5h18.6v31c4.8-5,9.6-10.3,14.6-15.7c4.9-5.5,9.5-10.6,13.7-15.3h22.1
				c-5.6,6.7-11.3,13.1-17,19.3c-5.7,6.2-11.7,12.4-17.9,18.6c6.6,5.5,13,12,19.1,19.6c6.1,7.6,12,15.9,17.7,25H787.5z"/>
		</g>
		<g>
			<path class="st2" d="M820.3,201v-82.5H876v15.6h-37.2v16.2h33v15.2h-33v19.9h39.9V201H820.3z"/>
		</g>
		<g>
			<path class="st2" d="M916.6,117.5c12.4,0,21.9,2.2,28.5,6.6c6.6,4.4,9.9,11.3,9.9,20.5c0,5.8-1.3,10.5-4,14.1
				c-2.7,3.6-6.5,6.5-11.5,8.5c1.7,2.1,3.4,4.4,5.2,7.1c1.8,2.7,3.6,5.4,5.4,8.3c1.8,2.9,3.5,5.9,5.2,9.1c1.7,3.1,3.2,6.2,4.6,9.2
				h-20.8c-1.5-2.7-3-5.4-4.6-8.2c-1.6-2.8-3.1-5.5-4.8-8.1c-1.6-2.6-3.2-5.1-4.8-7.4c-1.6-2.3-3.2-4.5-4.8-6.4H911V201h-18.6v-81.4
				c4.1-0.8,8.2-1.3,12.6-1.7C909.4,117.7,913.2,117.5,916.6,117.5z M917.7,133.4c-1.4,0-2.6,0-3.6,0.1c-1.1,0.1-2.1,0.2-3,0.2v22.4
				h5.2c7,0,12-0.9,15-2.6c3-1.7,4.5-4.7,4.5-8.9c0-4.1-1.5-6.9-4.6-8.6C928.2,134.2,923.7,133.4,917.7,133.4z"/>
		</g>
	</g>
	<g>
		<g>
			<path class="st2" d="M503.1,236.5c1.4,2.6,3.1,5.9,5,9.7c1.9,3.9,3.8,8,5.9,12.5c2,4.5,4,9.1,6,13.8c2,4.7,3.9,9.1,5.6,13.2
				c1.8-4.1,3.6-8.5,5.6-13.2c2-4.7,4-9.3,6-13.8c2-4.5,4-8.7,5.9-12.5c1.9-3.9,3.5-7.1,5-9.7h16.9c0.8,5.5,1.5,11.6,2.2,18.4
				c0.7,6.8,1.3,13.9,1.8,21.2c0.5,7.3,1,14.7,1.4,22.1c0.4,7.4,0.8,14.3,1.1,20.8h-18.1c-0.2-8-0.6-16.8-1-26.2
				c-0.4-9.4-1-19-1.8-28.6c-1.4,3.3-3,7-4.8,11.1c-1.8,4.1-3.5,8.1-5.2,12.2c-1.7,4.1-3.4,7.9-5,11.6c-1.6,3.7-2.9,6.8-4.1,9.5h-13
				c-1.1-2.6-2.5-5.8-4.1-9.5s-3.2-7.6-5-11.6c-1.7-4.1-3.4-8.1-5.2-12.2c-1.8-4.1-3.3-7.7-4.8-11.1c-0.8,9.6-1.4,19.1-1.8,28.6
				c-0.4,9.5-0.7,18.2-1,26.2h-18.1c0.3-6.5,0.7-13.5,1.1-20.8c0.4-7.4,0.9-14.7,1.4-22.1c0.5-7.3,1.1-14.4,1.8-21.2
				c0.7-6.8,1.4-12.9,2.2-18.4H503.1z"/>
		</g>
		<g>
			<path class="st2" d="M643.4,319.1c-0.9-2.9-1.9-5.8-3-8.8c-1.1-3-2.1-6-3.2-9H605c-1,3-2.1,6-3.1,9.1c-1,3-2,6-2.9,8.8h-19.3
				c3.1-8.9,6.1-17.1,8.8-24.7c2.8-7.5,5.5-14.7,8.2-21.3c2.7-6.7,5.3-13,7.9-19c2.6-6,5.3-11.9,8.1-17.6h17.6
				c2.7,5.7,5.4,11.6,8,17.6c2.6,6,5.3,12.3,8,19c2.7,6.7,5.4,13.8,8.2,21.3c2.8,7.5,5.7,15.8,8.9,24.7H643.4z M621.1,255.2
				c-0.4,1.2-1,2.8-1.8,4.9c-0.8,2.1-1.7,4.4-2.7,7.2c-1,2.7-2.2,5.7-3.4,8.9c-1.3,3.3-2.5,6.7-3.8,10.2h23.6
				c-1.3-3.6-2.5-7-3.7-10.3c-1.2-3.3-2.3-6.2-3.4-8.9c-1.1-2.7-2-5.1-2.8-7.1C622.2,258,621.5,256.4,621.1,255.2z"/>
		</g>
		<g>
			<path class="st2" d="M729.3,319.1c-5.3-9.4-11.1-18.8-17.3-28c-6.2-9.2-12.8-17.9-19.8-26.1v54.1h-18.3v-82.5H689
				c2.6,2.6,5.5,5.8,8.7,9.6c3.2,3.8,6.4,7.9,9.7,12.2c3.3,4.3,6.6,8.8,9.8,13.5c3.3,4.6,6.3,9.1,9.2,13.4v-48.7h18.5v82.5H729.3z"
				/>
		</g>
		<g>
			<path class="st2" d="M763.9,236.5h18.6v82.5h-18.6V236.5z"/>
		</g>
		<g>
			<path class="st2" d="M857,319.1c-0.9-2.9-1.9-5.8-3-8.8c-1.1-3-2.1-6-3.2-9h-32.2c-1,3-2.1,6-3.1,9.1c-1,3-2,6-2.9,8.8h-19.3
				c3.1-8.9,6.1-17.1,8.8-24.7c2.8-7.5,5.5-14.7,8.2-21.3c2.7-6.7,5.3-13,7.9-19c2.6-6,5.3-11.9,8.1-17.6h17.6
				c2.7,5.7,5.4,11.6,8,17.6c2.6,6,5.3,12.3,8,19c2.7,6.7,5.4,13.8,8.2,21.3c2.8,7.5,5.7,15.8,8.9,24.7H857z M834.6,255.2
				c-0.4,1.2-1,2.8-1.8,4.9c-0.8,2.1-1.7,4.4-2.7,7.2c-1,2.7-2.2,5.7-3.4,8.9s-2.5,6.7-3.8,10.2h23.6c-1.3-3.6-2.5-7-3.7-10.3
				c-1.2-3.3-2.3-6.2-3.4-8.9c-1.1-2.7-2-5.1-2.8-7.1C835.8,258,835.1,256.4,834.6,255.2z"/>
		</g>
	</g>
	<g>
		<g>
			<path class="st2" d="M537,405.8c0,5-0.7,9.5-2.2,13.6c-1.5,4.1-3.6,7.5-6.4,10.4c-2.8,2.9-6.2,5.1-10.2,6.6
				c-4.1,1.5-8.7,2.3-13.8,2.3c-2.1,0-4.4-0.1-6.7-0.3c-2.3-0.2-4.6-0.5-6.9-0.8c-2.3-0.3-4.4-0.7-6.5-1.1c-2.1-0.4-3.9-0.9-5.5-1.4
				v-87.6l17.7-2.9v31.2c2-0.9,4.1-1.5,6.2-2c2.1-0.5,4.4-0.7,6.9-0.7c4.4,0,8.4,0.8,11.8,2.3c3.4,1.5,6.3,3.8,8.6,6.6
				c2.3,2.9,4.1,6.3,5.2,10.3C536.4,396.4,537,400.9,537,405.8z M518.9,405.3c0-11.4-4.2-17.2-12.6-17.2c-1.8,0-3.6,0.2-5.4,0.7
				c-1.8,0.5-3.2,1.1-4.3,1.8v32.3c0.9,0.2,2,0.3,3.3,0.4c1.3,0.1,2.8,0.2,4.4,0.2c4.8,0,8.5-1.7,11-5
				C517.7,415.2,518.9,410.8,518.9,405.3z"/>
		</g>
		<g>
			<path class="st2" d="M604.8,374.4c-3.6,12.1-7.3,23.4-11.2,33.9c-3.9,10.6-8.2,20.8-12.8,30.7c-1.7,3.6-3.3,6.6-5,9.1
				c-1.7,2.5-3.5,4.6-5.5,6.2c-2,1.6-4.2,2.8-6.7,3.6c-2.5,0.8-5.4,1.1-8.8,1.1c-2.8,0-5.4-0.3-7.7-0.8c-2.3-0.5-4.3-1.1-5.8-1.7
				l3.1-14.2c1.8,0.6,3.5,1.1,4.9,1.3c1.4,0.2,2.9,0.4,4.5,0.4c3.2,0,5.6-0.9,7.3-2.6c1.7-1.7,3.2-4.1,4.4-7.1
				c-4.1-7.9-8.1-16.9-12.2-26.7c-4.1-9.9-7.9-21-11.4-33.3h18.8c0.8,3.1,1.7,6.5,2.8,10.1c1.1,3.6,2.2,7.3,3.4,11
				c1.2,3.7,2.4,7.3,3.6,10.8c1.2,3.5,2.4,6.7,3.5,9.5c1-2.9,2.1-6,3.2-9.5c1.1-3.5,2.2-7.1,3.3-10.8c1.1-3.7,2.1-7.3,3.1-11
				c1-3.6,1.9-7,2.7-10.1H604.8z"/>
		</g>
	</g>
</g>
</svg>
