<?xml version="1.0" encoding="utf-8"?>
<!-- Generator: Adobe Illustrator 19.2.1, SVG Export Plug-In . SVG Version: 6.00 Build 0)  -->
<svg version="1.1" id="Слой_1" xmlns="http://www.w3.org/2000/svg" xmlns:xlink="http://www.w3.org/1999/xlink" x="0px" y="0px"
	 viewBox="0 0 960 560" style="enable-background:new 0 0 960 560;" xml:space="preserve">
<style type="text/css">
	.st0{fill:#FAB900;}
	.st1{fill:#191919;}
	.st2{fill:#060606;}
	.st3{fill:#FFFFFF;}
</style>
<rect x="309.5" y="58.7" class="st0" width="312" height="21.9"/>
<rect x="675.9" y="478.6" class="st0" width="157.2" height="21.9"/>
<g>
	<path class="st1" d="M127,75.3h4c1-1.7,1.7-3.4,2.3-5c0.6-1.7,1-3.4,1.2-5.1c0.3-1.7,0.4-3.5,0.5-5.3c0.1-1.8,0.1-3.7,0.1-5.7v-1.1
		h18.2v22.2h4.7v12.6H152v-7.3h-19.1v7.3H127V75.3z M140.9,58.3c-0.1,1.4-0.1,2.9-0.3,4.4c-0.1,1.5-0.3,3-0.6,4.5
		c-0.3,1.5-0.6,2.9-1.1,4.3s-1,2.7-1.6,3.9h9.9v-17H140.9z"/>
	<path class="st1" d="M161.9,80.5V53.1h18.6v5.2h-12.4v5.4h11v5.1h-11v6.6h13.3v5.2H161.9z"/>
	<path class="st1" d="M198,58.3c-0.1,1.8-0.2,3.5-0.3,5.3s-0.3,3.5-0.6,5.2s-0.7,3.2-1.3,4.7c-0.6,1.5-1.3,2.7-2.3,3.8
		c-1,1.1-2.2,2-3.7,2.7c-1.5,0.7-3.3,1-5.4,1.1l-0.7-5.4c1.9-0.2,3.4-0.7,4.4-1.4c1-0.8,1.8-1.9,2.3-3.5c0.7-1.9,1.1-4.4,1.4-7.5
		c0.3-3.1,0.4-6.5,0.4-10.2h18.8v27.5h-6.2V58.3H198z"/>
	<path class="st1" d="M235.7,80.5c-0.3-1-0.6-1.9-1-2.9c-0.4-1-0.7-2-1.1-3h-10.7c-0.3,1-0.7,2-1,3c-0.3,1-0.7,2-1,2.9h-6.4
		c1-3,2-5.7,2.9-8.2c0.9-2.5,1.8-4.9,2.7-7.1c0.9-2.2,1.8-4.3,2.6-6.3c0.9-2,1.8-3.9,2.7-5.8h5.9c0.9,1.9,1.8,3.9,2.7,5.8
		c0.9,2,1.8,4.1,2.6,6.3c0.9,2.2,1.8,4.6,2.7,7.1c0.9,2.5,1.9,5.2,2.9,8.2H235.7z M228.2,59.3c-0.1,0.4-0.3,0.9-0.6,1.6
		c-0.3,0.7-0.6,1.5-0.9,2.4c-0.3,0.9-0.7,1.9-1.1,3c-0.4,1.1-0.8,2.2-1.3,3.4h7.9c-0.4-1.2-0.8-2.3-1.2-3.4c-0.4-1.1-0.8-2.1-1.1-3
		c-0.4-0.9-0.7-1.7-0.9-2.4C228.6,60.2,228.4,59.7,228.2,59.3z"/>
	<path class="st1" d="M245.8,80.5V53.1h18.6v5.2H252v5.4h11v5.1h-11v6.6h13.3v5.2H245.8z"/>
	<path class="st1" d="M277.1,53.1c0.5,0.9,1,1.9,1.6,3.2c0.6,1.3,1.3,2.7,1.9,4.2s1.3,3,2,4.6c0.7,1.6,1.3,3,1.9,4.4
		c0.6-1.4,1.2-2.8,1.9-4.4c0.7-1.6,1.3-3.1,2-4.6s1.3-2.9,1.9-4.2c0.6-1.3,1.2-2.4,1.6-3.2h5.6c0.3,1.8,0.5,3.9,0.7,6.1
		s0.4,4.6,0.6,7.1c0.2,2.4,0.3,4.9,0.5,7.4s0.3,4.8,0.4,6.9h-6c-0.1-2.7-0.2-5.6-0.3-8.7c-0.1-3.1-0.3-6.3-0.6-9.5
		c-0.5,1.1-1,2.3-1.6,3.7c-0.6,1.3-1.2,2.7-1.7,4c-0.6,1.3-1.1,2.6-1.7,3.9s-1,2.3-1.4,3.2h-4.3c-0.4-0.9-0.8-1.9-1.4-3.2
		s-1.1-2.5-1.7-3.9c-0.6-1.3-1.1-2.7-1.7-4s-1.1-2.6-1.6-3.7c-0.3,3.2-0.5,6.4-0.6,9.5c-0.1,3.1-0.2,6.1-0.3,8.7h-6
		c0.1-2.2,0.2-4.5,0.4-6.9s0.3-4.9,0.5-7.4c0.2-2.4,0.4-4.8,0.6-7.1c0.2-2.3,0.5-4.3,0.7-6.1H277.1z"/>
	<path class="st1" d="M331.5,53.1h6.2v27.5h-6.2V68.9h-10.4v11.7h-6.2V53.1h6.2v10.5h10.4V53.1z"/>
	<path class="st1" d="M344,80.5V53.1h18.6v5.2h-12.4v5.4h11v5.1h-11v6.6h13.3v5.2H344z"/>
	<path class="st1" d="M382.7,72.5c-0.8,1.7-1.6,3.2-2.4,4.3c-0.8,1.1-1.7,2-2.6,2.6c-0.9,0.6-1.8,1.1-2.7,1.3s-1.9,0.4-2.8,0.4
		c-0.9,0-1.8-0.1-2.8-0.3c-1-0.2-1.9-0.4-2.7-0.7l1.1-5c1.3,0.5,2.6,0.7,3.9,0.7c0.8,0,1.6-0.2,2.4-0.6c0.8-0.4,1.5-1.2,2.2-2.4
		c-1.1-1.7-2.1-3.4-3.1-5.2c-1-1.8-1.9-3.5-2.8-5.3c-0.9-1.7-1.7-3.4-2.5-5c-0.8-1.6-1.4-3.1-2-4.4h6.9c0.4,1,0.9,2.1,1.4,3.3
		c0.5,1.2,1.1,2.4,1.7,3.6c0.6,1.3,1.2,2.5,1.8,3.8c0.6,1.3,1.2,2.5,1.7,3.7c0.8-2.3,1.7-4.7,2.4-7.1c0.8-2.4,1.5-4.8,2.2-7.3h6.6
		c-0.7,2-1.4,3.9-2,5.7c-0.7,1.8-1.3,3.4-2,5c-0.6,1.6-1.3,3.1-1.9,4.5C383.9,69.7,383.3,71.1,382.7,72.5z"/>
	<path class="st1" d="M399.8,58.3v4.5h2c2,0,3.9,0.2,5.5,0.5c1.6,0.3,2.9,0.8,4,1.5c1.1,0.7,1.9,1.6,2.5,2.8
		c0.6,1.1,0.9,2.5,0.9,4.2c0,3-1.1,5.3-3.3,6.8c-2.2,1.5-5.4,2.2-9.5,2.2c-1.1,0-2.4-0.1-3.8-0.2c-1.4-0.1-2.8-0.4-4.3-0.7V53.1
		h18.2v5.2H399.8z M402.3,75.5c0.8,0,1.6-0.1,2.3-0.2c0.7-0.1,1.4-0.3,2-0.6c0.6-0.3,1-0.7,1.4-1.1c0.3-0.5,0.5-1.1,0.5-1.9
		c0-0.8-0.2-1.4-0.5-1.9c-0.3-0.5-0.8-0.9-1.3-1.2c-0.6-0.3-1.3-0.5-2.1-0.6c-0.8-0.1-1.8-0.2-2.9-0.2h-1.8v7.5c0.3,0,0.6,0,1,0.1
		C401.3,75.5,401.7,75.5,402.3,75.5z"/>
	<path class="st1" d="M419.7,80.5V53.1h6.1v16.2c1-1.4,2-2.9,3.1-4.5c1.1-1.5,2.2-3,3.3-4.5c1.1-1.4,2.2-2.8,3.2-4.1
		c1.1-1.3,2-2.3,2.9-3.2h5v27.5h-6.1v-18c-2.3,2.7-4.5,5.6-6.6,8.7s-4,6.2-5.7,9.3H419.7z"/>
	<path class="st1" d="M458.8,80.9c-1.5,0-3,0-4.5-0.1c-1.5-0.1-3-0.3-4.7-0.7V53.4c1.3-0.2,2.7-0.4,4.2-0.5c1.5-0.1,2.9-0.2,4.2-0.2
		c1.7,0,3.3,0.1,4.8,0.4c1.5,0.3,2.7,0.7,3.8,1.3c1.1,0.6,1.9,1.4,2.5,2.4s0.9,2.2,0.9,3.7c0,2.2-1.1,3.9-3.2,5.2
		c1.7,0.7,2.9,1.6,3.6,2.7c0.6,1.1,1,2.4,1,3.8c0,2.9-1.1,5-3.2,6.5C466.1,80.2,462.9,80.9,458.8,80.9z M455.7,63.8h3
		c1.9,0,3.3-0.2,4.1-0.7c0.8-0.5,1.2-1.3,1.2-2.4c0-1.1-0.4-1.9-1.3-2.3c-0.8-0.4-2.1-0.7-3.7-0.7c-0.5,0-1.1,0-1.7,0
		c-0.6,0-1.1,0-1.6,0.1V63.8z M455.7,68.6v7.1c0.4,0.1,0.9,0.1,1.5,0.1c0.5,0,1.1,0,1.7,0c1.8,0,3.3-0.3,4.5-0.8
		c1.1-0.5,1.7-1.5,1.7-2.9c0-1.3-0.5-2.2-1.4-2.7c-1-0.5-2.3-0.8-4.1-0.8H455.7z"/>
	<path class="st1" d="M494.3,80.5c-0.3-1-0.6-1.9-1-2.9c-0.4-1-0.7-2-1.1-3h-10.7c-0.3,1-0.7,2-1,3c-0.3,1-0.7,2-1,2.9h-6.4
		c1-3,2-5.7,2.9-8.2c0.9-2.5,1.8-4.9,2.7-7.1c0.9-2.2,1.8-4.3,2.6-6.3c0.9-2,1.8-3.9,2.7-5.8h5.9c0.9,1.9,1.8,3.9,2.7,5.8
		c0.9,2,1.8,4.1,2.6,6.3c0.9,2.2,1.8,4.6,2.7,7.1c0.9,2.5,1.9,5.2,2.9,8.2H494.3z M486.9,59.3c-0.1,0.4-0.3,0.9-0.6,1.6
		c-0.3,0.7-0.6,1.5-0.9,2.4c-0.3,0.9-0.7,1.9-1.1,3c-0.4,1.1-0.8,2.2-1.3,3.4h7.9c-0.4-1.2-0.8-2.3-1.2-3.4c-0.4-1.1-0.8-2.1-1.1-3
		c-0.4-0.9-0.7-1.7-0.9-2.4C487.3,60.2,487,59.7,486.9,59.3z"/>
	<path class="st1" d="M504.5,80.5V53.1H523v5.2h-12.4v5.4h11v5.1h-11v6.6h13.3v5.2H504.5z"/>
	<path class="st1" d="M535.8,53.1c0.5,0.9,1,1.9,1.6,3.2c0.6,1.3,1.3,2.7,1.9,4.2s1.3,3,2,4.6c0.7,1.6,1.3,3,1.9,4.4
		c0.6-1.4,1.2-2.8,1.9-4.4c0.7-1.6,1.3-3.1,2-4.6s1.3-2.9,1.9-4.2c0.6-1.3,1.2-2.4,1.6-3.2h5.6c0.3,1.8,0.5,3.9,0.7,6.1
		s0.4,4.6,0.6,7.1c0.2,2.4,0.3,4.9,0.5,7.4s0.3,4.8,0.4,6.9h-6c-0.1-2.7-0.2-5.6-0.3-8.7c-0.1-3.1-0.3-6.3-0.6-9.5
		c-0.5,1.1-1,2.3-1.6,3.7c-0.6,1.3-1.2,2.7-1.7,4c-0.6,1.3-1.1,2.6-1.7,3.9s-1,2.3-1.4,3.2H541c-0.4-0.9-0.8-1.9-1.4-3.2
		s-1.1-2.5-1.7-3.9c-0.6-1.3-1.1-2.7-1.7-4s-1.1-2.6-1.6-3.7c-0.3,3.2-0.5,6.4-0.6,9.5c-0.1,3.1-0.2,6.1-0.3,8.7h-6
		c0.1-2.2,0.2-4.5,0.4-6.9s0.3-4.9,0.5-7.4c0.2-2.4,0.4-4.8,0.6-7.1c0.2-2.3,0.5-4.3,0.7-6.1H535.8z"/>
	<path class="st1" d="M584.8,71.5c0,1.5-0.3,2.9-0.9,4c-0.6,1.2-1.4,2.1-2.5,2.9c-1.1,0.8-2.4,1.4-4,1.8c-1.6,0.4-3.3,0.6-5.3,0.6
		c-1.1,0-2.4-0.1-3.8-0.2c-1.4-0.2-2.8-0.4-4.3-0.8V53.1h6.2v9.1c0.3,0,0.6,0,0.8,0s0.5,0,0.8,0c4.3,0,7.5,0.8,9.7,2.3
		S584.8,68.3,584.8,71.5z M571.5,67.4c-0.1,0-0.3,0-0.6,0s-0.5,0-0.7,0v8.2c0.3,0,0.6,0,1,0c0.4,0,0.8,0,1.3,0
		c0.8,0,1.6-0.1,2.3-0.2c0.7-0.1,1.3-0.4,1.9-0.7c0.5-0.3,1-0.7,1.3-1.3c0.3-0.5,0.5-1.2,0.5-2c0-1.6-0.6-2.7-1.8-3.3
		C575.5,67.7,573.7,67.4,571.5,67.4z M588.3,53.1h6.2v27.5h-6.2V53.1z"/>
	<path class="st1" d="M600.8,80.5V53.1h18.6v5.2H607v5.4h11v5.1h-11v6.6h13.3v5.2H600.8z"/>
	<path class="st1" d="M646.9,81.1c-4.5,0-7.9-1.2-10.2-3.7c-2.3-2.5-3.5-6-3.5-10.6c0-2.3,0.4-4.3,1.1-6.1c0.7-1.8,1.7-3.3,2.9-4.5
		s2.7-2.2,4.4-2.8c1.7-0.6,3.6-1,5.6-1c1.2,0,2.2,0.1,3.2,0.3c1,0.2,1.8,0.4,2.5,0.6c0.7,0.2,1.3,0.5,1.8,0.7c0.5,0.2,0.8,0.4,1,0.6
		l-1.8,5c-0.8-0.4-1.8-0.8-3-1.1c-1.1-0.3-2.4-0.5-3.8-0.5c-1,0-1.9,0.2-2.8,0.5c-0.9,0.3-1.7,0.8-2.4,1.5c-0.7,0.7-1.3,1.6-1.7,2.7
		c-0.4,1.1-0.6,2.5-0.6,4c0,1.3,0.1,2.5,0.4,3.5c0.3,1.1,0.7,2,1.3,2.8c0.6,0.8,1.4,1.4,2.4,1.9c1,0.5,2.2,0.7,3.6,0.7
		c0.9,0,1.7-0.1,2.4-0.2c0.7-0.1,1.3-0.2,1.9-0.4c0.6-0.1,1-0.3,1.5-0.5c0.4-0.2,0.8-0.4,1.1-0.5l1.7,5c-0.9,0.5-2.1,1-3.7,1.4
		C650.8,80.9,649,81.1,646.9,81.1z"/>
	<path class="st1" d="M681.2,53.1v5.3H673v22.2h-6.2V58.3h-8.3v-5.3H681.2z"/>
	<path class="st1" d="M685.2,80.5V53.1h6.1v16.2c1-1.4,2-2.9,3.1-4.5c1.1-1.5,2.2-3,3.3-4.5c1.1-1.4,2.2-2.8,3.2-4.1
		c1.1-1.3,2-2.3,2.9-3.2h5v27.5h-6.1v-18c-2.3,2.7-4.5,5.6-6.6,8.7s-4,6.2-5.7,9.3H685.2z"/>
	<path class="st1" d="M731.4,80.5c-0.6-0.9-1.2-1.9-2-2.9s-1.6-2.1-2.4-3.1c-0.9-1.1-1.8-2.1-2.7-3c-1-1-1.9-1.8-2.9-2.6v11.6h-6.2
		V53.1h6.2v10.3c1.6-1.7,3.2-3.4,4.8-5.2c1.6-1.8,3.2-3.5,4.5-5.1h7.3c-1.9,2.2-3.8,4.4-5.6,6.4c-1.9,2.1-3.9,4.1-6,6.2
		c2.2,1.8,4.3,4,6.4,6.5c2,2.5,4,5.3,5.9,8.3H731.4z"/>
	<path class="st1" d="M742.3,80.5V53.1h18.6v5.2h-12.4v5.4h11v5.1h-11v6.6h13.3v5.2H742.3z"/>
	<path class="st1" d="M774.6,52.7c4.1,0,7.2,0.7,9.4,2.2c2.2,1.4,3.3,3.8,3.3,7.1c0,3.3-1.1,5.7-3.3,7.2c-2.2,1.5-5.4,2.2-9.5,2.2
		h-1.9v9.2h-6.2V53.4c1.3-0.3,2.8-0.4,4.3-0.6C772.1,52.8,773.4,52.7,774.6,52.7z M775,58c-0.5,0-0.9,0-1.3,0
		c-0.4,0-0.8,0.1-1.1,0.1v7.9h1.9c2.1,0,3.8-0.3,4.8-0.9c1.1-0.6,1.6-1.7,1.6-3.3c0-0.8-0.1-1.4-0.4-1.9c-0.3-0.5-0.7-0.9-1.2-1.2
		c-0.5-0.3-1.1-0.5-1.9-0.6C776.7,58.1,775.9,58,775,58z"/>
	<path class="st1" d="M812.6,71.5c0,1.5-0.3,2.9-0.9,4c-0.6,1.2-1.4,2.1-2.5,2.9c-1.1,0.8-2.4,1.4-4,1.8c-1.6,0.4-3.3,0.6-5.3,0.6
		c-1.1,0-2.4-0.1-3.8-0.2c-1.4-0.2-2.8-0.4-4.3-0.8V53.1h6.2v9.1c0.3,0,0.6,0,0.8,0s0.5,0,0.8,0c4.3,0,7.5,0.8,9.7,2.3
		S812.6,68.3,812.6,71.5z M799.3,67.4c-0.1,0-0.3,0-0.6,0s-0.5,0-0.7,0v8.2c0.3,0,0.6,0,1,0c0.4,0,0.8,0,1.3,0
		c0.8,0,1.6-0.1,2.3-0.2c0.7-0.1,1.3-0.4,1.9-0.7c0.5-0.3,1-0.7,1.3-1.3c0.3-0.5,0.5-1.2,0.5-2c0-1.6-0.6-2.7-1.8-3.3
		C803.3,67.7,801.5,67.4,799.3,67.4z M816.1,53.1h6.2v27.5h-6.2V53.1z"/>
</g>
<g>
	<path class="st0" d="M698,180.6v19.5h26.3c5.4,0,9.7-4.4,9.7-9.7v0c0-5.4-4.4-9.7-9.7-9.7H698z"/>
</g>
<g>
	<path class="st2" d="M575.8,366c-62,0-112.5-50.5-112.5-112.5c0-62,50.5-112.5,112.5-112.5s112.5,50.5,112.5,112.5
		C688.3,315.5,637.8,366,575.8,366z M575.8,149c-57.6,0-104.5,46.9-104.5,104.5c0,57.6,46.9,104.5,104.5,104.5
		s104.5-46.9,104.5-104.5C680.3,195.9,633.4,149,575.8,149z"/>
</g>
<g>
	
		<rect x="526" y="222.1" transform="matrix(0.7071 -0.7071 0.7071 0.7071 -20.8443 447.6774)" class="st2" width="8" height="53.7"/>
</g>
<g>
	<rect x="503.1" y="245" transform="matrix(0.7072 -0.707 0.707 0.7072 -20.8614 447.6299)" class="st2" width="53.7" height="8"/>
</g>
<g>
	<rect x="326.1" y="217.8" class="st0" width="187.9" height="187.9"/>
</g>
<g>
	<path class="st2" d="M518,409.6H322.1V213.8H518V409.6z M330.1,401.6H510V221.8H330.1V401.6z"/>
</g>
<g>
	<rect x="176.2" y="294.9" class="st2" width="13.5" height="8"/>
</g>
<g>
	<rect x="215.6" y="294.9" class="st2" width="26.2" height="8"/>
</g>
<g>
	<path class="st2" d="M282.8,311.7h-30.3v-27.5h30.3c7.6,0,13.7,6.2,13.7,13.7S290.4,311.7,282.8,311.7z M260.5,303.7h22.3
		c3.2,0,5.7-2.6,5.7-5.7s-2.6-5.7-5.7-5.7h-22.3V303.7z"/>
</g>
<g>
	<rect x="279.1" y="349.9" class="st2" width="13.5" height="8"/>
</g>
<g>
	<rect x="318.4" y="349.9" class="st2" width="26.2" height="8"/>
</g>
<g>
	
		<rect x="310.8" y="207.8" transform="matrix(0.7071 -0.7071 0.7071 0.7071 -84.6611 295.8399)" class="st2" width="8" height="84.6"/>
</g>
<g>
	<polygon class="st2" points="433.1,357.9 363.9,357.9 363.9,349.9 412.8,349.9 361.2,301.8 366.7,295.9 	"/>
</g>
<g>
	<polygon class="st3" points="430.6,316.8 432.6,340.9 453.6,352.9 431.3,362.2 426.3,385.9 410.6,367.6 386.6,370.2 399.1,349.5 
		389.2,327.5 412.7,333.1 	"/>
</g>
<g>
	<path class="st2" d="M428.6,394.6l-19.7-22.8l-30,3.3l15.7-25.8l-12.4-27.5l29.3,6.9l22.3-20.3l2.5,30.1l26.2,15l-27.8,11.7
		L428.6,394.6z M412.2,363.4l11.8,13.8l3.7-17.8l16.7-7l-15.7-9l-1.5-18.1l-13.4,12.2l-17.7-4.2l7.4,16.6l-9.4,15.5L412.2,363.4z"/>
</g>
<g>
	<path class="st2" d="M268,223.4L246.5,202c-5.4-5.4-5.4-14.1,0-19.4c2.6-2.6,6-4,9.7-4c3.7,0,7.1,1.4,9.7,4l21.5,21.5L268,223.4z
		 M256.3,186.5c-1.5,0-3,0.6-4.1,1.7c-2.2,2.2-2.2,5.9,0,8.1l15.8,15.8l8.1-8.1l-15.8-15.8C259.2,187.1,257.8,186.5,256.3,186.5z"/>
</g>
<g>
	<path class="st2" d="M573.6,210.8c-11.3,0-20.4-9.2-20.4-20.4s9.2-20.4,20.4-20.4s20.4,9.2,20.4,20.4S584.9,210.8,573.6,210.8z
		 M573.6,178c-6.8,0-12.4,5.6-12.4,12.4s5.6,12.4,12.4,12.4s12.4-5.6,12.4-12.4S580.5,178,573.6,178z"/>
</g>
<g>
	
		<rect x="613.3" y="222.1" transform="matrix(0.7071 -0.7071 0.7071 0.7071 4.7375 509.4374)" class="st2" width="8" height="53.7"/>
</g>
<g>
	<rect x="590.4" y="245" transform="matrix(0.7072 -0.707 0.707 0.7072 4.7151 509.3845)" class="st2" width="53.7" height="8"/>
</g>
<g>
	<path class="st2" d="M610.3,316.8c-10-10-20.4-15-31.2-15c-0.1,0-0.3,0-0.4,0c-16.6,0.2-28.6,12.5-28.7,12.6l-5.8-5.5
		c0.6-0.6,14.3-14.9,34.3-15.1c13.1-0.1,25.7,5.7,37.4,17.3L610.3,316.8z"/>
</g>
<g>
	<rect x="430.8" y="187.3" class="st2" width="13.5" height="8"/>
</g>
<g>
	<rect x="453.6" y="187.7" class="st2" width="59.8" height="8"/>
</g>
<g>
	<path class="st2" d="M724.3,204.1H694v-27.5h30.3c7.6,0,13.7,6.2,13.7,13.7C738.1,198,731.9,204.1,724.3,204.1z M702,196.1h22.3
		c3.2,0,5.7-2.6,5.7-5.7s-2.6-5.7-5.7-5.7H702V196.1z"/>
</g>
<g>
	<rect x="662.8" y="186.4" class="st2" width="26.2" height="8"/>
</g>
<g>
	<path class="st1" d="M141.4,478.3c-0.1,1.8-0.2,3.5-0.3,5.3c-0.1,1.8-0.3,3.5-0.6,5.2c-0.3,1.7-0.7,3.2-1.3,4.7
		c-0.6,1.5-1.3,2.7-2.3,3.8c-1,1.1-2.2,2-3.7,2.7c-1.5,0.7-3.3,1-5.4,1.1l-0.7-5.4c1.9-0.2,3.4-0.7,4.4-1.4c1-0.8,1.8-1.9,2.3-3.5
		c0.7-1.9,1.1-4.4,1.4-7.5c0.3-3.1,0.4-6.5,0.4-10.2h18.8v27.5h-6.2v-22.2H141.4z"/>
	<path class="st1" d="M180.2,501.1c-1.3,0-2.5-0.2-3.6-0.6c-1.1-0.4-2.1-1-3-1.7c-0.9-0.8-1.6-1.7-2.1-2.8c-0.6-1.1-1-2.3-1.2-3.7
		h-4.3v8.2h-5.9v-20.9h5.9v7.8h4.4c0.2-1.3,0.6-2.4,1.2-3.4c0.6-1,1.3-1.9,2.2-2.6c0.9-0.7,1.8-1.3,2.9-1.7s2.2-0.6,3.5-0.6
		c1.4,0,2.7,0.3,4,0.8c1.2,0.5,2.3,1.2,3.2,2.2c0.9,1,1.6,2.1,2.1,3.4c0.5,1.3,0.8,2.9,0.8,4.5c0,1.7-0.3,3.2-0.8,4.5
		s-1.2,2.5-2.1,3.5s-2,1.7-3.2,2.2C183,500.8,181.7,501.1,180.2,501.1z M180.2,484.2c-1.2,0-2.2,0.5-2.9,1.6
		c-0.7,1.1-1.1,2.5-1.1,4.3c0,1.8,0.4,3.2,1.1,4.3c0.7,1.1,1.7,1.6,2.9,1.6s2.2-0.5,2.9-1.6c0.7-1.1,1.1-2.5,1.1-4.3
		c0-1.8-0.4-3.2-1.1-4.3C182.4,484.7,181.5,484.2,180.2,484.2z"/>
	<path class="st1" d="M213,474.8c-1,0.2-1.9,0.4-2.8,0.4c-0.9,0.1-1.8,0.2-2.7,0.4c-0.8,0.1-1.6,0.3-2.4,0.6
		c-0.8,0.3-1.5,0.6-2.2,1.1c-0.7,0.5-1.3,1-1.8,1.7c-0.5,0.7-0.9,1.6-1.1,2.6c1.7-0.8,3.4-1.2,5-1.2c1.3,0,2.4,0.2,3.5,0.6
		c1.1,0.4,2,1.1,2.8,1.9c0.8,0.8,1.4,1.9,1.9,3.2c0.5,1.3,0.7,2.7,0.7,4.4c0,1.8-0.3,3.4-0.8,4.7c-0.5,1.3-1.2,2.4-2.2,3.3
		c-0.9,0.9-2,1.5-3.2,2c-1.2,0.4-2.5,0.7-3.9,0.7c-3.7,0-6.3-1.1-7.9-3.4s-2.4-5.5-2.4-9.9c0-2.9,0.3-5.3,0.8-7.3
		c0.6-2,1.4-3.7,2.5-5c1.1-1.3,2.5-2.4,4.1-3.2c1.6-0.8,3.5-1.4,5.7-1.8c0.9-0.2,1.8-0.3,2.6-0.4c0.9-0.1,1.8-0.2,2.7-0.5L213,474.8
		z M200,486.4c-0.1,0.4-0.1,0.8-0.1,1.3c0,0.5,0,0.9,0,1.3c0,2.3,0.3,4.1,1,5.3c0.6,1.2,1.7,1.8,3.3,1.8c1.3,0,2.3-0.5,3-1.5
		c0.7-1,1-2.4,1-4c0-0.7-0.1-1.3-0.2-1.9c-0.2-0.6-0.4-1.2-0.8-1.6c-0.3-0.5-0.8-0.9-1.3-1.1c-0.5-0.3-1.1-0.4-1.8-0.4
		s-1.4,0.1-2.2,0.2S200.5,486,200,486.4z"/>
	<path class="st1" d="M224.5,487.1c0.4-0.1,0.9-0.2,1.4-0.3s1.3-0.1,2-0.1c1.2,0,2.4,0.1,3.4,0.4s2,0.7,2.8,1.3s1.4,1.3,1.9,2.3
		c0.5,0.9,0.7,2,0.7,3.2c0,1.2-0.2,2.3-0.6,3.2c-0.4,0.9-1,1.6-1.8,2.2s-1.7,1-2.8,1.3c-1.1,0.3-2.3,0.4-3.7,0.4
		c-1.7,0-3.3-0.1-4.8-0.3c-1.5-0.2-2.9-0.4-4.4-0.8v-20.2h5.9V487.1z M227.5,496.4c1.1,0,1.9-0.2,2.6-0.6s0.9-1.1,0.9-2
		c0-0.5-0.1-0.9-0.3-1.2c-0.2-0.3-0.5-0.6-0.9-0.8c-0.4-0.2-0.8-0.3-1.3-0.4s-1-0.1-1.6-0.1c-0.4,0-0.8,0-1.3,0.1
		c-0.5,0.1-0.8,0.1-1.1,0.2v4.8c0.3,0.1,0.7,0.1,1.3,0.1C226.3,496.4,226.9,496.4,227.5,496.4z M245.7,500.5h-5.9v-20.9h5.9V500.5z"
		/>
	<path class="st1" d="M259.6,485.5l4.1-5.8h6.1l-7.2,10.1c1.7,1.9,3.1,3.8,4.4,5.7c1.3,1.9,2.3,3.6,3.1,5h-6.3
		c-0.2-0.4-0.5-0.9-0.8-1.5c-0.3-0.6-0.7-1.2-1.1-1.9c-0.4-0.6-0.8-1.2-1.2-1.6c-0.4-0.5-0.9-0.9-1.3-1.2c-0.4,0.3-0.8,0.7-1.2,1.1
		c-0.4,0.4-0.8,0.9-1.2,1.6c-0.4,0.6-0.7,1.2-1.1,1.8c-0.4,0.6-0.7,1.2-1,1.7h-6c0.3-0.7,0.8-1.4,1.3-2.3s1.1-1.8,1.8-2.8
		c0.7-1,1.4-1.9,2.1-2.8c0.8-0.9,1.5-1.8,2.2-2.6c-1.3-1.8-2.5-3.6-3.7-5.3c-1.2-1.7-2.4-3.4-3.5-5h6.4L259.6,485.5z"/>
	<path class="st1" d="M302.2,490.1c0,1.6-0.2,3.1-0.6,4.4c-0.4,1.3-1,2.5-1.7,3.4s-1.7,1.7-2.9,2.2s-2.4,0.8-3.9,0.8
		c-0.8,0-1.6-0.1-2.3-0.2c-0.7-0.2-1.4-0.4-2.1-0.7v7.9h-5.9v-27.5c0.5-0.2,1.1-0.3,1.8-0.5s1.4-0.3,2.2-0.4
		c0.8-0.1,1.5-0.2,2.3-0.3s1.5-0.1,2.2-0.1c1.7,0,3.3,0.3,4.6,0.8c1.3,0.5,2.5,1.2,3.4,2.2c0.9,0.9,1.6,2.1,2.1,3.4
		S302.2,488.4,302.2,490.1z M296.1,490.2c0-1.8-0.4-3.3-1.2-4.4c-0.8-1.1-2-1.6-3.6-1.6c-0.5,0-1,0-1.5,0.1c-0.4,0-0.8,0.1-1.1,0.1
		v10.7c0.4,0.2,0.9,0.4,1.4,0.6s1.2,0.2,1.8,0.2C294.7,495.9,296.1,494,296.1,490.2z"/>
	<path class="st1" d="M314.2,479.1c1.7,0,3.2,0.2,4.4,0.6s2.1,1,2.8,1.7s1.2,1.6,1.5,2.7c0.3,1.1,0.4,2.2,0.4,3.5v12.3
		c-0.8,0.2-2,0.4-3.5,0.7s-3.3,0.4-5.5,0.4c-1.3,0-2.6-0.1-3.7-0.4c-1.1-0.2-2-0.6-2.8-1.2c-0.8-0.5-1.4-1.2-1.8-2.1
		c-0.4-0.9-0.6-1.9-0.6-3.2c0-1.2,0.2-2.2,0.7-3.1c0.5-0.8,1.1-1.5,2-2s1.8-0.9,2.8-1.1c1.1-0.2,2.2-0.3,3.3-0.3c0.8,0,1.4,0,2,0.1
		s1.1,0.2,1.4,0.3v-0.6c0-1-0.3-1.8-0.9-2.4c-0.6-0.6-1.7-0.9-3.2-0.9c-1,0-2,0.1-3,0.2c-1,0.1-1.8,0.4-2.5,0.6l-0.8-4.8
		c0.3-0.1,0.8-0.2,1.3-0.3c0.5-0.1,1.1-0.2,1.7-0.3c0.6-0.1,1.2-0.2,1.9-0.2C312.8,479.1,313.5,479.1,314.2,479.1z M314.7,496.4
		c0.6,0,1.1,0,1.7,0c0.5,0,1-0.1,1.3-0.1v-4.5c-0.2-0.1-0.6-0.1-1.1-0.2c-0.5-0.1-0.9-0.1-1.3-0.1c-0.6,0-1.1,0-1.6,0.1
		c-0.5,0.1-0.9,0.2-1.3,0.4c-0.4,0.2-0.7,0.4-0.9,0.8c-0.2,0.3-0.3,0.7-0.3,1.2c0,0.9,0.3,1.6,0.9,1.9S313.6,496.4,314.7,496.4z"/>
	<path class="st1" d="M327.6,480.3c0.9-0.3,2-0.6,3.2-0.8s2.5-0.3,4-0.3c1.1,0,2.1,0.1,3.2,0.3c1,0.2,1.9,0.5,2.8,1
		c0.8,0.5,1.5,1.1,1.9,1.8s0.7,1.7,0.7,2.8c0,1-0.2,1.9-0.7,2.6c-0.5,0.7-1.2,1.3-2,1.8c1.2,0.5,2,1.2,2.6,2
		c0.6,0.8,0.8,1.9,0.8,3.1c0,1.2-0.3,2.2-0.8,3c-0.5,0.8-1.2,1.5-2,2c-0.8,0.5-1.8,0.9-2.9,1.1s-2.2,0.3-3.4,0.3
		c-0.7,0-1.4,0-2.1-0.1c-0.7-0.1-1.5-0.2-2.2-0.3c-0.7-0.1-1.4-0.3-2-0.5c-0.6-0.2-1.2-0.4-1.7-0.6l1.1-4.6c0.6,0.2,1.4,0.5,2.6,0.8
		c1.2,0.3,2.5,0.4,3.9,0.4c2.4,0,3.6-0.7,3.6-2c0-0.4-0.1-0.8-0.3-1.1c-0.2-0.3-0.4-0.5-0.7-0.7c-0.3-0.2-0.7-0.3-1.1-0.3
		s-0.8-0.1-1.2-0.1h-4.6v-4.2h4.7c1,0,1.6-0.2,2-0.6c0.4-0.4,0.6-0.8,0.6-1.3c0-0.5-0.2-1-0.7-1.4c-0.4-0.4-1.2-0.6-2.4-0.6
		s-2.3,0.1-3.3,0.3c-1,0.2-1.9,0.4-2.5,0.6L327.6,480.3z"/>
	<path class="st1" d="M354.1,488.5c-0.1,0.9-0.1,1.9-0.2,3c-0.1,1.1-0.1,2.2-0.1,3.3c0,1.1-0.1,2.1-0.1,3.1c0,1-0.1,1.9-0.1,2.6
		h-5.7c0.1-1.5,0.1-3.1,0.3-4.9c0.1-1.8,0.3-3.7,0.4-5.6c0.1-1.9,0.3-3.7,0.5-5.5c0.2-1.8,0.3-3.4,0.5-4.8h4.9
		c1.1,1.8,2.2,3.8,3.1,5.7c1,2,2,4.2,3,6.5c1.1-2.5,2.2-4.9,3.3-7s2-3.9,2.9-5.2h5c0.2,1.4,0.4,3,0.5,4.8c0.2,1.8,0.3,3.6,0.5,5.5
		c0.1,1.9,0.3,3.7,0.4,5.6s0.2,3.5,0.2,4.9h-5.9c-0.1-2.1-0.1-4.1-0.2-6.2c-0.1-2-0.2-4-0.3-5.9l-4.4,9.6h-4.1L354.1,488.5z"/>
	<path class="st1" d="M377.4,490.2c0-1.8,0.3-3.5,0.9-4.9c0.6-1.4,1.3-2.5,2.2-3.5c0.9-0.9,2-1.6,3.2-2.1c1.2-0.5,2.4-0.7,3.7-0.7
		c3,0,5.3,0.9,7,2.7c1.7,1.8,2.6,4.5,2.6,8c0,0.3,0,0.7,0,1.1c0,0.4-0.1,0.8-0.1,1.1h-13.4c0.1,1.2,0.7,2.2,1.7,2.9
		c1,0.7,2.4,1.1,4,1.1c1.1,0,2.1-0.1,3.2-0.3c1-0.2,1.9-0.4,2.6-0.7l0.8,4.8c-0.3,0.2-0.7,0.3-1.3,0.5c-0.5,0.2-1.1,0.3-1.8,0.4
		c-0.6,0.1-1.3,0.2-2.1,0.3c-0.7,0.1-1.5,0.1-2.2,0.1c-1.9,0-3.5-0.3-4.9-0.8c-1.4-0.6-2.5-1.3-3.4-2.3c-0.9-1-1.6-2.1-2-3.4
		C377.7,493.2,377.4,491.8,377.4,490.2z M391.3,488c0-0.5-0.1-1-0.3-1.5c-0.1-0.5-0.4-0.9-0.7-1.3c-0.3-0.4-0.7-0.7-1.2-0.9
		c-0.5-0.2-1-0.4-1.7-0.4c-0.7,0-1.2,0.1-1.7,0.3s-0.9,0.5-1.2,0.9c-0.3,0.4-0.6,0.8-0.7,1.3c-0.2,0.5-0.3,1-0.4,1.5H391.3z"/>
	<path class="st1" d="M421,490.1c0,1.6-0.2,3.1-0.6,4.4c-0.4,1.3-1,2.5-1.7,3.4s-1.7,1.7-2.9,2.2s-2.4,0.8-3.9,0.8
		c-0.8,0-1.6-0.1-2.3-0.2c-0.7-0.2-1.4-0.4-2.1-0.7v7.9h-5.9v-27.5c0.5-0.2,1.1-0.3,1.8-0.5s1.4-0.3,2.2-0.4
		c0.8-0.1,1.5-0.2,2.3-0.3s1.5-0.1,2.2-0.1c1.7,0,3.3,0.3,4.6,0.8c1.3,0.5,2.5,1.2,3.4,2.2c0.9,0.9,1.6,2.1,2.1,3.4
		S421,488.4,421,490.1z M414.9,490.2c0-1.8-0.4-3.3-1.2-4.4c-0.8-1.1-2-1.6-3.6-1.6c-0.5,0-1,0-1.5,0.1c-0.4,0-0.8,0.1-1.1,0.1v10.7
		c0.4,0.2,0.9,0.4,1.4,0.6s1.2,0.2,1.8,0.2C413.5,495.9,414.9,494,414.9,490.2z"/>
	<path class="st1" d="M445,490c0,1.6-0.2,3.1-0.7,4.5c-0.5,1.4-1.2,2.5-2.1,3.5c-0.9,1-2,1.7-3.2,2.2c-1.3,0.5-2.7,0.8-4.2,0.8
		c-1.5,0-2.9-0.3-4.2-0.8c-1.3-0.5-2.3-1.3-3.2-2.2c-0.9-1-1.6-2.1-2.1-3.5c-0.5-1.4-0.8-2.9-0.8-4.5s0.3-3.1,0.8-4.5
		c0.5-1.3,1.2-2.5,2.1-3.4c0.9-1,2-1.7,3.3-2.2c1.3-0.5,2.6-0.8,4.1-0.8c1.5,0,2.9,0.3,4.1,0.8c1.3,0.5,2.3,1.3,3.2,2.2
		s1.6,2.1,2.1,3.4S445,488.4,445,490z M439,490c0-1.8-0.4-3.3-1.1-4.3s-1.8-1.6-3.1-1.6c-1.3,0-2.4,0.5-3.1,1.6s-1.1,2.5-1.1,4.3
		c0,1.8,0.4,3.3,1.1,4.3c0.7,1.1,1.8,1.6,3.1,1.6c1.3,0,2.4-0.5,3.1-1.6C438.6,493.3,439,491.9,439,490z"/>
	<path class="st1" d="M458.6,500.9c-0.7,0-1.5,0-2.4-0.1c-0.8-0.1-1.7-0.1-2.5-0.2c-0.8-0.1-1.6-0.2-2.3-0.3
		c-0.7-0.1-1.3-0.2-1.8-0.3v-20c0.5-0.1,1.1-0.2,1.8-0.3c0.7-0.1,1.5-0.2,2.3-0.3c0.8-0.1,1.7-0.1,2.5-0.2s1.6-0.1,2.4-0.1
		c1.7,0,3.2,0.2,4.3,0.5s2.1,0.8,2.9,1.3c0.7,0.6,1.2,1.2,1.6,1.9c0.3,0.7,0.5,1.4,0.5,2.1c0,0.9-0.2,1.8-0.7,2.5
		c-0.5,0.8-1,1.3-1.7,1.7c0.4,0.2,0.7,0.4,1.1,0.7c0.4,0.3,0.7,0.6,1.1,1.1c0.3,0.4,0.6,0.9,0.8,1.5s0.3,1.2,0.3,2
		c0,0.8-0.2,1.7-0.5,2.5c-0.3,0.8-0.9,1.5-1.7,2.1c-0.8,0.6-1.8,1.1-3.1,1.5C462.1,500.7,460.5,500.9,458.6,500.9z M458.8,487.8
		c1,0,1.8-0.1,2.4-0.4c0.6-0.3,0.9-0.8,0.9-1.6c0-0.8-0.3-1.3-1-1.6c-0.7-0.3-1.6-0.4-2.7-0.4c-0.4,0-0.9,0-1.4,0.1
		c-0.6,0-1.1,0.1-1.4,0.1v3.9H458.8z M455.5,496.1c0.4,0.1,0.9,0.1,1.5,0.1c0.6,0,1.2,0.1,1.7,0.1c1.3,0,2.4-0.2,3.1-0.5
		c0.7-0.3,1.1-0.9,1.1-1.8c0-0.8-0.3-1.4-1-1.8c-0.7-0.3-1.7-0.5-3-0.5h-3.4V496.1z"/>
	<path class="st1" d="M501.8,479.7v20.9h-5.9c0-1.3,0-2.6,0-3.9c0-1.3,0.1-2.5,0.1-3.6c0-1.1,0.1-2.1,0.1-2.9c0-0.8,0.1-1.4,0.1-1.8
		c-0.8,1.1-1.5,2.2-2.3,3.3c-0.8,1.1-1.5,2.2-2.2,3.3c-0.7,1.1-1.4,2.1-2,3.1c-0.6,1-1.2,1.9-1.6,2.7h-5.2v-20.9h5.9
		c0,1.3,0,2.6,0,3.8c0,1.2,0,2.3-0.1,3.3c0,1-0.1,1.8-0.1,2.6s0,1.3,0,1.7c1.6-2.3,3-4.4,4.4-6.3c1.3-1.8,2.6-3.5,3.9-5H501.8z"/>
	<path class="st1" d="M532.7,507.8h-5.7v-7.3c-1.8-0.1-3.4-0.5-4.8-1.1c-1.4-0.6-2.5-1.3-3.5-2.3c-0.9-0.9-1.6-2-2.1-3.2
		c-0.5-1.2-0.7-2.5-0.7-3.9c0-1.3,0.2-2.6,0.7-3.7c0.4-1.2,1.1-2.2,2-3.1c0.9-0.9,2-1.7,3.4-2.3c1.4-0.6,3.1-1,5-1.2v-9.1l5.7-1
		v10.1c1.5,0.1,2.9,0.4,4.2,0.9c1.3,0.5,2.5,1.1,3.5,2s1.8,1.9,2.4,3.1c0.6,1.2,0.9,2.7,0.9,4.3c0,1.7-0.3,3.2-0.9,4.4
		c-0.6,1.2-1.4,2.3-2.4,3.1c-1,0.8-2.2,1.5-3.5,2c-1.3,0.5-2.8,0.8-4.3,0.9V507.8z M526.9,484.8c-1.6,0.1-2.8,0.6-3.7,1.5
		s-1.4,2.2-1.4,4c0,1.7,0.4,3,1.3,3.8c0.9,0.8,2.1,1.3,3.8,1.5V484.8z M532.7,495.6c0.6,0,1.2-0.1,1.8-0.3s1.2-0.5,1.6-0.9
		s0.9-1,1.2-1.6c0.3-0.7,0.5-1.5,0.5-2.6s-0.2-1.9-0.5-2.6c-0.3-0.7-0.7-1.2-1.2-1.6c-0.5-0.4-1-0.7-1.6-0.9s-1.2-0.3-1.8-0.3V495.6
		z"/>
	<path class="st1" d="M567.9,490c0,1.6-0.2,3.1-0.7,4.5c-0.5,1.4-1.2,2.5-2.1,3.5c-0.9,1-2,1.7-3.2,2.2c-1.3,0.5-2.7,0.8-4.2,0.8
		c-1.5,0-2.9-0.3-4.2-0.8c-1.3-0.5-2.3-1.3-3.2-2.2c-0.9-1-1.6-2.1-2.1-3.5c-0.5-1.4-0.8-2.9-0.8-4.5s0.3-3.1,0.8-4.5
		c0.5-1.3,1.2-2.5,2.1-3.4c0.9-1,2-1.7,3.3-2.2c1.3-0.5,2.6-0.8,4.1-0.8c1.5,0,2.9,0.3,4.1,0.8c1.3,0.5,2.3,1.3,3.2,2.2
		s1.6,2.1,2.1,3.4S567.9,488.4,567.9,490z M561.8,490c0-1.8-0.4-3.3-1.1-4.3s-1.8-1.6-3.1-1.6c-1.3,0-2.4,0.5-3.1,1.6
		s-1.1,2.5-1.1,4.3c0,1.8,0.4,3.3,1.1,4.3c0.7,1.1,1.8,1.6,3.1,1.6c1.3,0,2.4-0.5,3.1-1.6C561.5,493.3,561.8,491.9,561.8,490z"/>
	<path class="st1" d="M591.8,490.1c0,1.6-0.2,3.1-0.6,4.4c-0.4,1.3-1,2.5-1.7,3.4s-1.7,1.7-2.9,2.2s-2.4,0.8-3.9,0.8
		c-0.8,0-1.6-0.1-2.3-0.2c-0.7-0.2-1.4-0.4-2.1-0.7v7.9h-5.9v-27.5c0.5-0.2,1.1-0.3,1.8-0.5s1.4-0.3,2.2-0.4
		c0.8-0.1,1.5-0.2,2.3-0.3s1.5-0.1,2.2-0.1c1.7,0,3.3,0.3,4.6,0.8c1.3,0.5,2.5,1.2,3.4,2.2c0.9,0.9,1.6,2.1,2.1,3.4
		S591.8,488.4,591.8,490.1z M585.8,490.2c0-1.8-0.4-3.3-1.2-4.4c-0.8-1.1-2-1.6-3.6-1.6c-0.5,0-1,0-1.5,0.1c-0.4,0-0.8,0.1-1.1,0.1
		v10.7c0.4,0.2,0.9,0.4,1.4,0.6s1.2,0.2,1.8,0.2C584.4,495.9,585.8,494,585.8,490.2z"/>
	<path class="st1" d="M602.2,488.5c-0.1,0.9-0.1,1.9-0.2,3c-0.1,1.1-0.1,2.2-0.1,3.3c0,1.1-0.1,2.1-0.1,3.1c0,1-0.1,1.9-0.1,2.6H596
		c0.1-1.5,0.1-3.1,0.3-4.9c0.1-1.8,0.3-3.7,0.4-5.6c0.1-1.9,0.3-3.7,0.5-5.5c0.2-1.8,0.3-3.4,0.5-4.8h4.9c1.1,1.8,2.2,3.8,3.1,5.7
		c1,2,2,4.2,3,6.5c1.1-2.5,2.2-4.9,3.3-7s2-3.9,2.9-5.2h5c0.2,1.4,0.4,3,0.5,4.8c0.2,1.8,0.3,3.6,0.5,5.5c0.1,1.9,0.3,3.7,0.4,5.6
		s0.2,3.5,0.2,4.9h-5.9c-0.1-2.1-0.1-4.1-0.2-6.2c-0.1-2-0.2-4-0.3-5.9l-4.4,9.6h-4.1L602.2,488.5z"/>
	<path class="st1" d="M635,480.3c0.9-0.3,2-0.6,3.2-0.8s2.5-0.3,4-0.3c1.1,0,2.1,0.1,3.2,0.3c1,0.2,1.9,0.5,2.8,1
		c0.8,0.5,1.5,1.1,1.9,1.8s0.7,1.7,0.7,2.8c0,1-0.2,1.9-0.7,2.6c-0.5,0.7-1.2,1.3-2,1.8c1.2,0.5,2,1.2,2.6,2
		c0.6,0.8,0.8,1.9,0.8,3.1c0,1.2-0.3,2.2-0.8,3c-0.5,0.8-1.2,1.5-2,2c-0.8,0.5-1.8,0.9-2.9,1.1s-2.2,0.3-3.4,0.3
		c-0.7,0-1.4,0-2.1-0.1c-0.7-0.1-1.5-0.2-2.2-0.3c-0.7-0.1-1.4-0.3-2-0.5c-0.6-0.2-1.2-0.4-1.7-0.6l1.1-4.6c0.6,0.2,1.4,0.5,2.6,0.8
		c1.2,0.3,2.5,0.4,3.9,0.4c2.4,0,3.6-0.7,3.6-2c0-0.4-0.1-0.8-0.3-1.1c-0.2-0.3-0.4-0.5-0.7-0.7c-0.3-0.2-0.7-0.3-1.1-0.3
		s-0.8-0.1-1.2-0.1h-4.6v-4.2h4.7c1,0,1.6-0.2,2-0.6c0.4-0.4,0.6-0.8,0.6-1.3c0-0.5-0.2-1-0.7-1.4c-0.4-0.4-1.2-0.6-2.4-0.6
		s-2.3,0.1-3.3,0.3c-1,0.2-1.9,0.4-2.5,0.6L635,480.3z"/>
	<path class="st1" d="M663.2,479.1c1.7,0,3.2,0.2,4.4,0.6s2.1,1,2.8,1.7s1.2,1.6,1.5,2.7c0.3,1.1,0.4,2.2,0.4,3.5v12.3
		c-0.8,0.2-2,0.4-3.5,0.7s-3.3,0.4-5.5,0.4c-1.3,0-2.6-0.1-3.7-0.4c-1.1-0.2-2-0.6-2.8-1.2c-0.8-0.5-1.4-1.2-1.8-2.1
		c-0.4-0.9-0.6-1.9-0.6-3.2c0-1.2,0.2-2.2,0.7-3.1c0.5-0.8,1.1-1.5,2-2s1.8-0.9,2.8-1.1c1.1-0.2,2.2-0.3,3.3-0.3c0.8,0,1.4,0,2,0.1
		s1.1,0.2,1.4,0.3v-0.6c0-1-0.3-1.8-0.9-2.4c-0.6-0.6-1.7-0.9-3.2-0.9c-1,0-2,0.1-3,0.2c-1,0.1-1.8,0.4-2.5,0.6l-0.8-4.8
		c0.3-0.1,0.8-0.2,1.3-0.3c0.5-0.1,1.1-0.2,1.7-0.3c0.6-0.1,1.2-0.2,1.9-0.2C661.8,479.1,662.5,479.1,663.2,479.1z M663.6,496.4
		c0.6,0,1.1,0,1.7,0c0.5,0,1-0.1,1.3-0.1v-4.5c-0.2-0.1-0.6-0.1-1.1-0.2c-0.5-0.1-0.9-0.1-1.3-0.1c-0.6,0-1.1,0-1.6,0.1
		c-0.5,0.1-0.9,0.2-1.3,0.4c-0.4,0.2-0.7,0.4-0.9,0.8c-0.2,0.3-0.3,0.7-0.3,1.2c0,0.9,0.3,1.6,0.9,1.9S662.5,496.4,663.6,496.4z"/>
	<path class="st1" d="M704,480.2c0,1-0.2,2-0.6,2.9s-0.9,1.8-1.5,2.7c-0.6,0.9-1.3,1.7-2.1,2.5c-0.8,0.8-1.6,1.5-2.3,2.3
		c-0.4,0.4-0.8,0.8-1.3,1.2c-0.5,0.5-0.9,0.9-1.3,1.4s-0.8,0.9-1.1,1.3c-0.3,0.4-0.5,0.7-0.6,1h11.8v5h-18.3
		c-0.1-0.3-0.1-0.7-0.1-1.1c0-0.4,0-0.8,0-1c0-1.3,0.2-2.4,0.6-3.5c0.4-1.1,0.9-2,1.6-3c0.7-0.9,1.4-1.8,2.2-2.6
		c0.8-0.8,1.7-1.6,2.5-2.4c0.6-0.6,1.2-1.2,1.8-1.7s1-1.1,1.5-1.6c0.4-0.5,0.8-1,1-1.5c0.2-0.5,0.4-1,0.4-1.6c0-1.2-0.3-2-1-2.5
		c-0.7-0.5-1.5-0.7-2.5-0.7c-0.7,0-1.4,0.1-2,0.3s-1.2,0.5-1.7,0.8c-0.5,0.3-1,0.6-1.3,0.9c-0.4,0.3-0.6,0.5-0.8,0.7l-2.9-4.1
		c1.2-1.1,2.5-2,4.1-2.7s3.2-1.1,5-1.1c1.6,0,3,0.2,4.2,0.6c1.2,0.4,2.1,0.9,2.9,1.6c0.8,0.7,1.3,1.5,1.7,2.5S704,479,704,480.2z"/>
	<path class="st1" d="M707.8,486h11.5v5.4h-11.5V486z"/>
	<path class="st1" d="M729.4,501.1c-0.7,0-1.5,0-2.3-0.1c-0.8-0.1-1.6-0.2-2.3-0.4s-1.4-0.3-2-0.5c-0.6-0.2-1.1-0.4-1.4-0.5l1.1-4.9
		c0.7,0.3,1.6,0.6,2.6,0.9c1.1,0.3,2.4,0.5,4,0.5c1.8,0,3.2-0.3,4-1c0.8-0.7,1.3-1.6,1.3-2.8c0-0.7-0.2-1.3-0.5-1.8
		c-0.3-0.5-0.7-0.9-1.2-1.2c-0.5-0.3-1.2-0.5-1.9-0.6c-0.7-0.1-1.5-0.2-2.3-0.2h-2.3v-4.8h2.6c0.6,0,1.1-0.1,1.7-0.2
		c0.5-0.1,1-0.3,1.4-0.5c0.4-0.3,0.8-0.6,1-1c0.3-0.4,0.4-1,0.4-1.6c0-0.5-0.1-0.9-0.3-1.3c-0.2-0.4-0.5-0.7-0.8-0.9
		c-0.3-0.2-0.7-0.4-1.2-0.5c-0.4-0.1-0.9-0.2-1.3-0.2c-1.1,0-2.2,0.2-3.2,0.5c-1,0.3-1.8,0.8-2.6,1.3l-2.1-4.3
		c0.4-0.3,0.9-0.5,1.5-0.8c0.6-0.3,1.2-0.6,1.9-0.8c0.7-0.2,1.4-0.4,2.2-0.6c0.8-0.2,1.6-0.2,2.5-0.2c1.6,0,3,0.2,4.2,0.6
		c1.2,0.4,2.1,0.9,2.9,1.6c0.8,0.7,1.3,1.5,1.7,2.5s0.6,2,0.6,3.1c0,1.1-0.3,2.1-0.9,3.1c-0.6,1-1.4,1.8-2.5,2.3
		c1.4,0.6,2.5,1.4,3.3,2.6c0.8,1.2,1.2,2.5,1.2,4.1c0,1.3-0.2,2.4-0.6,3.5c-0.4,1.1-1.1,2-2,2.8c-0.9,0.8-2,1.4-3.4,1.8
		C732.9,500.9,731.3,501.1,729.4,501.1z"/>
	<path class="st1" d="M753.2,495.7h2.6c0.7-0.9,1.3-2,1.7-3.3c0.4-1.3,0.7-2.7,0.9-4.2c0.2-1.5,0.3-3,0.3-4.5c0-1.5,0-2.8,0-4h16.3
		v16h3.5v10.8h-5v-5.9h-15.2v5.9h-5V495.7z M769,495.7v-11.2h-4.8c-0.1,0.9-0.1,1.9-0.2,2.9c-0.1,1-0.2,2-0.4,2.9
		c-0.2,1-0.4,1.9-0.7,2.8c-0.3,0.9-0.7,1.8-1.1,2.5H769z"/>
	<path class="st1" d="M800,500.5h-5.9v-8.2h-6.1v8.2H782v-20.9h5.9v7.8h6.1v-7.8h5.9V500.5z"/>
	<path class="st1" d="M814.2,493.1c-0.8,1.2-1.6,2.5-2.3,3.7s-1.3,2.5-1.9,3.7h-6c0.8-1.7,1.5-3.3,2.3-4.7s1.6-2.7,2.3-3.7
		c-1.1-0.6-2-1.3-2.7-2.2c-0.7-0.9-1-2.1-1-3.4c0-2.3,0.8-4.1,2.5-5.4c1.7-1.2,4-1.9,7-1.9c0.7,0,1.4,0,2.2,0.1
		c0.8,0.1,1.6,0.1,2.4,0.2s1.6,0.2,2.3,0.3c0.7,0.1,1.3,0.2,1.8,0.4v20.3h-5.9v-7.4H814.2z M817.2,483.9c-0.3,0-0.7-0.1-1.2-0.1
		c-0.6,0-1-0.1-1.4-0.1c-1.5,0-2.4,0.2-3,0.7c-0.5,0.5-0.8,1.1-0.8,1.9c0,0.5,0.1,0.9,0.3,1.2c0.2,0.3,0.5,0.6,0.8,0.8
		s0.7,0.3,1.2,0.4c0.4,0.1,0.8,0.1,1.3,0.1h2.9V483.9z"/>
</g>
</svg>
